# xmcd
#
# Track frame offsets:
#	150
#	24372
#	50045
#	71607
#
# Disc length: 1362 seconds
#
# Revision: 1
# Processed by: cddbd v1.5.2PL0 Copyright (c) Steve Scherf et al.
# Submitted via: audiograbber 1.83.01
#
DISCID=30055004
DTITLE=Blues Company - Old, New, Borrowed But Blues (40 Years On The Blues High
DTITLE=way) [Bonus-CD] - "Encores"
DYEAR=2016
DGENRE=Blues
TTITLE0=Let's Work Together [borrowed] [live]
TTITLE1=Honky Tonk Woman [borrowed] [live]
TTITLE2=Fool [old] [live]
TTITLE3=The Blues Is Alright [old] [live]
EXTD=
EXTT0=
EXTT1=
EXTT2=
EXTT3=
PLAYORDER=
